<?xml version="1.0" standalone="no"?>
<!DOCTYPE svg PUBLIC "-//W3C//DTD SVG 20010904//EN"
 "http://www.w3.org/TR/2001/REC-SVG-20010904/DTD/svg10.dtd">
<svg version="1.0" xmlns="http://www.w3.org/2000/svg"
 width="174.000000pt" height="60.000000pt" viewBox="0 0 174.000000 60.000000"
 preserveAspectRatio="xMidYMid meet">

<g transform="translate(0.000000,60.000000) scale(0.100000,-0.100000)"
fill="#000000" stroke="none">
<path d="M180 439 c0 -6 -7 -35 -16 -65 -13 -46 -19 -54 -40 -54 -13 0 -24 -4
-24 -10 0 -15 56 -12 69 3 6 8 14 28 17 45 4 18 9 32 13 32 3 0 20 -48 36
-107 22 -79 35 -109 48 -111 9 -2 17 2 17 8 0 7 7 36 16 66 13 46 19 54 40 54
13 0 24 5 24 10 0 15 -56 12 -69 -3 -6 -8 -14 -28 -17 -45 -4 -18 -10 -32 -13
-32 -4 0 -20 50 -36 110 -24 87 -34 110 -47 110 -10 0 -18 -5 -18 -11z"/>
<path d="M670 300 c0 -73 3 -90 15 -90 12 0 15 17 15 90 0 73 -3 90 -15 90
-12 0 -15 -17 -15 -90z"/>
<path d="M740 300 c0 -73 3 -90 15 -90 12 0 15 17 15 90 0 73 -3 90 -15 90
-12 0 -15 -17 -15 -90z"/>
<path d="M1490 300 c0 -83 1 -90 20 -90 15 0 20 7 20 28 l1 27 17 -27 c9 -16
25 -28 34 -28 23 0 23 6 -2 40 -13 18 -16 31 -10 35 5 3 15 15 20 26 17 32
-22 24 -42 -8 l-17 -28 -1 58 c0 50 -2 57 -20 57 -19 0 -20 -7 -20 -90z"/>
<path d="M517 303 c-15 -43 -27 -81 -27 -85 0 -17 32 -7 37 12 4 15 14 20 38
20 24 0 34 -5 38 -20 5 -19 37 -29 37 -12 0 4 -12 42 -27 85 -22 63 -30 77
-47 77 -17 0 -26 -14 -49 -77z m62 7 c9 -28 8 -30 -14 -30 -22 0 -23 2 -14 30
6 17 12 30 14 30 2 0 8 -13 14 -30z"/>
<path d="M1020 365 c0 -8 9 -15 20 -15 18 0 20 -7 20 -70 0 -63 2 -70 20 -70
18 0 20 7 20 70 0 68 1 70 25 70 16 0 25 6 25 15 0 12 -14 15 -65 15 -51 0
-65 -3 -65 -15z"/>
<path d="M817 312 c-26 -29 -22 -80 7 -93 26 -12 76 -5 76 11 0 6 -13 10 -29
10 -17 0 -33 5 -36 10 -4 6 10 10 34 10 45 0 51 11 25 48 -18 27 -55 29 -77 4z
m58 -22 c4 -6 -5 -10 -20 -10 -15 0 -24 4 -20 10 3 6 12 10 20 10 8 0 17 -4
20 -10z"/>
<path d="M930 269 c0 -52 2 -59 20 -59 17 0 20 7 20 41 0 32 4 42 20 46 36 10
23 31 -20 31 l-40 1 0 -60z"/>
<path d="M1150 269 c0 -52 2 -59 20 -59 17 0 20 7 20 41 0 32 4 42 20 46 36
10 23 31 -20 31 l-40 1 0 -60z"/>
<path d="M1263 323 c-27 -10 -13 -30 20 -26 26 3 28 1 12 -6 -11 -5 -28 -12
-37 -15 -23 -7 -24 -54 -2 -63 9 -3 25 -1 35 6 12 7 19 7 19 1 0 -5 7 -10 15
-10 19 0 21 90 3 108 -12 12 -43 15 -65 5z m47 -63 c0 -12 -28 -25 -36 -17 -9
9 6 27 22 27 8 0 14 -5 14 -10z"/>
<path d="M1392 314 c-30 -20 -30 -68 0 -88 29 -20 68 -21 68 -1 0 8 -8 15 -19
15 -10 0 -24 7 -31 15 -16 19 3 45 31 45 11 0 19 7 19 15 0 20 -39 19 -68 -1z"/>
</g>
</svg>
