<svg width="80" height="80" viewBox="0 0 80 80" fill="none" xmlns="http://www.w3.org/2000/svg">
    <circle cx="40" cy="40" r="40" fill="#6C63FF"/>
    <path d="M40 20C40 20 46.6667 26.6667 46.6667 33.3333C46.6667 40 40 46.6667 40 46.6667C40 46.6667 33.3333 40 33.3333 33.3333C33.3333 26.6667 40 20 40 20Z" fill="#FF6584"/>
    <path d="M40 46.6667C40 46.6667 46.6667 53.3333 46.6667 60C46.6667 66.6667 40 73.3333 40 73.3333C40 73.3333 33.3333 66.6667 33.3333 60C33.3333 53.3333 40 46.6667 40 46.6667Z" fill="#FF6584"/>
    <path d="M40 46.6667C40 46.6667 33.3333 53.3333 33.3333 60C33.3333 66.6667 40 73.3333 40 73.3333C40 73.3333 46.6667 66.6667 46.6667 60C46.6667 53.3333 40 46.6667 40 46.6667Z" fill="#FF6584"/>
    <path d="M40 20C40 20 33.3333 26.6667 33.3333 33.3333C33.3333 40 40 46.6667 40 46.6667C40 46.6667 46.6667 40 46.6667 33.3333C46.6667 26.6667 40 20 40 20Z" fill="#FF6584"/>
</svg>
